<?xml version="1.0" standalone="no"?>
<!DOCTYPE svg PUBLIC "-//W3C//DTD SVG 20010904//EN"
 "http://www.w3.org/TR/2001/REC-SVG-20010904/DTD/svg10.dtd">
<svg version="1.0" xmlns="http://www.w3.org/2000/svg"
 width="608.000000pt" height="121.000000pt" viewBox="0 0 608.000000 121.000000"
 preserveAspectRatio="xMidYMid meet">

<g transform="translate(0.000000,121.000000) scale(0.100000,-0.100000)"
fill="#000000" stroke="none">
<path d="M4275 1165 l-50 -35 89 0 89 0 -25 33 c-14 17 -32 33 -39 34 -8 1
-36 -13 -64 -32z"/>
<path d="M1312 1089 c-91 -9 -170 -23 -249 -45 -51 -14 -52 -16 -129 -134
l-77 -120 -66 0 c-89 0 -230 -18 -319 -41 -100 -25 -188 -70 -264 -135 -35
-30 -73 -54 -86 -54 -26 0 -36 -21 -47 -96 -4 -34 -3 -54 4 -59 24 -14 10 -34
-26 -37 -35 -3 -38 -6 -41 -36 -4 -39 12 -62 42 -62 11 0 30 -7 40 -15 11 -8
35 -15 53 -15 30 0 33 -3 33 -30 0 -64 69 -154 142 -184 48 -20 138 -20 186 0
72 29 141 120 142 183 l0 25 20 -22 21 -22 598 0 599 0 11 -32 c31 -87 122
-148 223 -148 103 0 180 51 219 144 l22 54 136 8 c131 9 136 10 133 30 -2 16
5 24 28 32 25 9 30 16 30 44 0 43 -15 58 -60 58 -34 0 -36 2 -73 83 -21 46
-33 83 -27 85 5 2 10 17 10 32 0 29 -22 50 -53 50 -8 0 -61 45 -118 101 -138
134 -214 191 -334 250 -203 99 -444 135 -723 108z m353 -30 c97 -13 213 -42
285 -71 38 -15 75 -43 121 -88 112 -112 155 -143 188 -137 43 9 68 -22 51 -63
-7 -16 -15 -30 -18 -30 -3 0 -20 18 -39 39 -100 118 -304 239 -473 282 -156
39 -556 38 -691 -3 -53 -15 -77 -42 -150 -162 -34 -55 -68 -107 -75 -115 -19
-21 -30 -5 -12 16 9 10 52 77 97 149 l81 132 62 16 c159 42 412 58 573 35z
m-165 -217 l0 -149 -187 -6 c-219 -8 -423 -9 -423 -2 0 8 111 188 137 224 46
60 123 78 346 80 l127 1 0 -148z m296 113 c49 -14 125 -44 169 -65 88 -44 221
-145 274 -210 l33 -41 -63 6 c-35 4 -91 11 -124 16 -33 6 -170 14 -305 19
-135 5 -246 9 -247 9 -2 1 -3 69 -3 152 l0 152 88 -6 c48 -4 128 -18 178 -32z
m402 -109 c35 -28 59 -52 53 -54 -6 -2 -19 2 -29 10 -28 19 -112 97 -112 104
0 8 20 -5 88 -60z m-1377 -110 c-19 -21 -35 -25 -119 -31 -119 -8 -243 -29
-302 -50 -63 -22 -120 -34 -120 -25 0 4 29 21 64 39 109 53 269 87 430 90 l69
1 -22 -24z m1590 -88 l52 -63 -32 -3 c-32 -3 -111 37 -111 57 0 18 23 71 31
71 4 0 32 -28 60 -62z m-1563 17 c6 -6 -10 -335 -17 -334 -3 0 -19 27 -34 60
-56 117 -203 239 -289 239 -15 0 -28 4 -28 9 0 8 87 23 200 35 37 4 162 -2
168 -9z m652 -195 l0 -190 -321 0 -321 0 6 48 c3 26 8 109 12 184 l6 137 87 4
c47 1 186 4 309 5 l222 2 0 -190z m476 171 l59 -7 -40 -13 c-121 -41 -216
-161 -232 -290 l-6 -51 -113 0 -114 0 0 191 0 191 193 -7 c107 -4 221 -10 253
-14z m336 -49 c68 -30 105 -68 143 -147 19 -41 39 -76 45 -80 5 -3 10 -16 10
-28 0 -37 28 -67 61 -67 16 0 29 -4 29 -10 0 -14 -59 -13 -101 2 -50 17 -75
39 -130 118 -28 39 -68 84 -90 100 -105 75 -281 55 -364 -43 -36 -42 -75 -131
-75 -170 0 -25 -17 -47 -36 -47 -33 0 -22 114 20 206 42 92 132 161 240 184
63 14 199 4 248 -18z m-1729 -20 c79 -39 139 -102 190 -200 42 -79 44 -92 21
-127 -13 -19 -25 -25 -55 -25 -43 0 -52 11 -64 75 -11 61 -51 139 -96 184 -77
76 -200 92 -295 36 -43 -25 -114 -114 -114 -143 0 -9 -6 -12 -16 -8 -9 3 -20
6 -25 6 -6 0 -8 8 -5 18 46 160 47 162 78 178 52 27 149 44 235 41 68 -3 92
-9 146 -35z m1927 18 c0 -5 -4 -10 -10 -10 -5 0 -10 5 -10 10 0 6 5 10 10 10
6 0 10 -4 10 -10z m-30 -64 c0 -13 3 -31 6 -40 12 -32 -12 -14 -33 24 l-21 40
24 0 c19 0 24 -5 24 -24z m-2355 -23 c-8 -35 -26 -55 -19 -22 9 39 13 49 20
49 3 0 3 -12 -1 -27z m346 7 c37 -10 119 -74 119 -93 0 -6 -10 -1 -23 11 -59
56 -179 72 -253 34 -56 -29 -112 -94 -126 -147 -9 -32 -17 -45 -30 -45 -17 0
-16 3 5 38 14 20 36 57 50 82 60 106 152 149 258 120z m1773 -44 c29 -17 62
-50 92 -94 26 -37 63 -82 83 -99 l36 -33 -46 0 -46 0 -6 41 c-7 56 -53 127
-105 164 -37 25 -55 30 -115 33 -64 3 -78 0 -127 -25 -66 -34 -114 -106 -125
-184 -4 -27 -11 -49 -16 -49 -5 0 -6 15 -3 33 22 124 85 206 182 238 50 16
147 4 196 -25z m296 -33 c22 -51 21 -58 -9 -48 -17 5 -21 15 -21 51 0 24 2 44
5 44 2 0 13 -21 25 -47z m-2035 -1 c158 -78 156 -296 -3 -377 -37 -18 -123
-22 -163 -7 -39 15 -88 61 -108 101 -46 91 -33 170 39 242 68 68 152 82 235
41z m1720 -6 c21 -11 53 -41 70 -64 27 -39 30 -52 30 -116 0 -62 -4 -78 -27
-114 -73 -109 -231 -127 -322 -36 -68 68 -83 157 -40 243 55 110 179 147 289
87z m440 -86 c15 -24 -17 -41 -69 -38 -44 3 -51 6 -54 26 -3 21 0 22 57 22 33
0 63 -5 66 -10z m-2537 -17 c-2 -13 -15 -19 -46 -21 -37 -3 -42 -1 -42 17 0
18 6 21 46 21 38 0 45 -3 42 -17z m1630 -90 c3 -10 -95 -13 -467 -13 -259 0
-471 4 -471 8 0 5 3 12 7 15 3 4 213 6 466 5 358 -2 461 -6 465 -15z"/>
<path d="M1217 954 c-48 -7 -104 -21 -123 -30 -65 -31 -142 -164 -117 -202 9
-15 38 -17 233 -20 156 -2 227 1 236 9 18 15 20 229 2 247 -16 16 -118 14
-231 -4z m213 -119 l0 -105 -215 0 c-141 0 -215 4 -215 10 0 25 52 109 84 137
26 24 50 33 103 42 98 15 121 18 186 20 l57 1 0 -105z"/>
<path d="M1579 949 c-16 -16 -19 -34 -19 -115 0 -144 -16 -134 223 -134 145 0
206 3 215 12 18 18 14 79 -6 110 -38 57 -99 91 -214 117 -130 30 -177 32 -199
10z m181 -36 c83 -17 154 -49 187 -85 27 -29 47 -78 35 -90 -5 -5 -94 -7 -198
-6 l-189 3 -3 89 c-2 49 -1 95 2 102 5 14 53 11 166 -13z"/>
<path d="M1355 630 c-3 -5 0 -13 8 -16 23 -9 112 0 110 11 -4 14 -110 19 -118
5z"/>
<path d="M334 326 c-19 -19 -35 -41 -35 -50 -1 -9 -2 -22 -3 -28 -4 -27 17
-69 46 -93 22 -19 41 -25 75 -25 38 0 50 5 79 34 29 29 34 41 34 81 0 40 -5
52 -34 81 -29 29 -41 34 -81 34 -40 0 -52 -5 -81 -34z m141 -21 c54 -53 16
-145 -60 -145 -49 0 -85 36 -85 85 0 49 36 85 85 85 25 0 44 -8 60 -25z"/>
<path d="M372 288 c-20 -20 -15 -76 7 -88 46 -24 91 0 91 49 0 35 -17 51 -55
51 -17 0 -36 -5 -43 -12z m66 -40 c-3 -25 -36 -37 -48 -17 -13 20 0 39 27 39
20 0 24 -4 21 -22z"/>
<path d="M2054 341 c-29 -18 -54 -63 -54 -98 0 -30 34 -84 61 -98 37 -20 99
-19 127 1 28 19 52 65 52 99 0 34 -24 80 -52 99 -31 22 -96 20 -134 -3z m131
-36 c55 -54 15 -145 -64 -145 -32 0 -44 6 -65 31 -14 17 -26 41 -26 54 0 13
12 37 26 54 34 41 92 44 129 6z"/>
<path d="M2073 274 c-15 -24 -15 -29 -2 -53 28 -49 109 -32 109 24 0 54 -77
75 -107 29z m72 -29 c0 -22 -31 -33 -47 -17 -17 17 -1 44 24 40 15 -2 23 -10
23 -23z"/>
<path d="M4220 1091 c-89 -19 -114 -46 -151 -160 -37 -116 -47 -192 -29 -226
23 -43 101 -61 215 -50 129 12 164 53 212 249 30 121 26 143 -29 172 -37 19
-160 28 -218 15z m129 -95 c14 -17 -6 -107 -44 -191 -25 -58 -44 -69 -106 -63
-29 3 -34 7 -37 32 -5 41 45 198 70 219 25 21 100 23 117 3z"/>
<path d="M2865 1081 c-55 -23 -104 -104 -130 -214 -25 -108 -13 -188 32 -201
50 -14 114 -17 188 -11 l83 7 11 43 c6 24 11 46 11 49 0 3 -42 6 -94 6 -65 0
-97 4 -103 12 -11 19 -4 65 19 128 33 88 36 90 153 90 l102 0 11 39 c7 21 12
43 12 50 0 13 -263 15 -295 2z"/>
<path d="M3365 1080 c-34 -13 -59 -48 -173 -237 l-110 -183 67 0 68 0 23 50
23 50 69 0 68 0 0 -50 0 -50 60 0 60 0 0 215 0 215 -67 -1 c-38 0 -77 -4 -88
-9z m42 -247 c-3 -2 -25 -3 -50 -1 l-45 3 47 80 46 80 3 -79 c2 -43 1 -80 -1
-83z"/>
<path d="M3665 1003 c-38 -125 -95 -316 -100 -330 -3 -10 13 -13 59 -13 l63 0
18 60 18 60 86 0 c67 0 93 4 117 19 78 48 125 164 93 234 -20 44 -45 51 -191
55 l-137 4 -26 -89z m233 5 c21 -21 14 -74 -14 -107 -23 -28 -32 -31 -81 -31
-41 0 -54 3 -50 13 3 7 13 41 22 75 l18 62 46 0 c26 0 52 -5 59 -12z"/>
<path d="M4045 514 c-33 -20 -62 -38 -64 -40 -2 -2 22 -4 55 -4 l60 0 11 40
c5 22 7 40 4 40 -3 -1 -33 -17 -66 -36z"/>
<path d="M5810 441 c-89 -19 -114 -46 -151 -160 -37 -116 -47 -192 -29 -226
23 -43 101 -61 215 -50 129 12 164 53 212 249 30 121 26 143 -29 172 -37 19
-160 28 -218 15z m129 -95 c14 -17 -6 -107 -44 -191 -25 -58 -44 -69 -106 -63
-29 3 -34 7 -37 32 -5 41 45 198 70 219 25 21 100 23 117 3z"/>
<path d="M3064 421 c-45 -27 -79 -77 -103 -149 -41 -121 -38 -227 8 -251 30
-16 121 -23 201 -16 l78 7 11 43 c6 24 11 46 11 49 0 3 -42 6 -94 6 -65 0 -97
4 -103 12 -10 18 -4 61 18 126 31 89 36 92 154 92 l103 0 6 28 c3 15 8 37 12
50 l6 22 -138 0 c-119 0 -143 -3 -170 -19z"/>
<path d="M3396 363 c-95 -290 -89 -342 43 -357 34 -4 94 -4 132 0 76 7 78 9
93 80 l7 31 -58 -8 c-72 -11 -143 -2 -150 19 -4 8 11 74 32 146 21 72 40 139
43 149 4 15 -3 17 -56 17 l-60 0 -26 -77z"/>
<path d="M3965 430 c-34 -13 -59 -48 -173 -237 l-110 -183 67 0 68 0 23 50 23
50 69 0 68 0 0 -50 0 -50 60 0 60 0 0 215 0 215 -67 -1 c-38 0 -77 -4 -88 -9z
m45 -170 l0 -80 -50 0 -51 0 27 48 c48 84 66 112 70 112 2 0 4 -36 4 -80z"/>
<path d="M4317 428 c-42 -11 -97 -61 -123 -109 l-16 -31 23 16 c33 23 39 20
39 -18 0 -50 16 -85 42 -91 13 -3 52 -9 88 -13 70 -8 86 -24 55 -56 -13 -13
-38 -16 -125 -16 l-109 0 -10 -38 c-19 -68 -25 -65 122 -60 158 5 184 16 222
92 56 112 18 166 -116 166 -57 0 -75 17 -53 48 14 20 23 22 124 22 l109 0 10
38 c19 64 23 62 -116 61 -71 -1 -145 -6 -166 -11z"/>
<path d="M4727 428 c-42 -11 -97 -61 -123 -109 l-16 -31 23 16 c33 23 39 20
39 -18 0 -50 16 -85 42 -91 13 -3 52 -9 88 -13 70 -8 86 -24 55 -56 -13 -13
-38 -16 -125 -16 l-109 0 -10 -38 c-19 -68 -25 -65 122 -60 158 5 184 16 222
92 56 112 18 166 -116 166 -57 0 -75 17 -53 48 14 20 23 22 124 22 l109 0 10
38 c19 64 23 62 -116 61 -71 -1 -145 -6 -166 -11z"/>
<path d="M5059 228 l-65 -213 59 -3 c33 -2 61 -1 64 1 3 4 62 193 118 380 l14
47 -63 0 -62 0 -65 -212z"/>
<path d="M5354 421 c-45 -27 -79 -77 -103 -149 -41 -121 -38 -227 8 -251 30
-16 121 -23 201 -16 l78 7 11 43 c6 24 11 46 11 49 0 3 -42 6 -94 6 -65 0 -97
4 -103 12 -10 18 -4 61 18 126 31 89 36 92 154 92 l103 0 6 28 c3 15 8 37 12
50 l6 22 -138 0 c-119 0 -143 -3 -170 -19z"/>
</g>
</svg>
